<svg version="1" xmlns="http://www.w3.org/2000/svg" width="933.333" height="933.333" viewBox="0 0 700.000000 700.000000"><path d="M198.5 7.4c-6.2 2.9-10.7 7.6-13.7 14.1-2.3 5-2.3 5.4-2.6 50.6-.3 44.1-.2 45.8 1.8 51.2 1.2 3.2 3.8 7.3 6.1 9.7 13.8 14.2 36.8 9.9 45.1-8.4 2.3-5.1 2.3-5.1 2.3-51.6 0-45.2-.1-46.6-2.1-51.1-6.8-14.7-23-21.1-36.9-14.5zM481.9 6.3c-8.5 3.2-14 8.3-17.7 16.5-1.5 3.3-1.7 8.6-1.7 50.7 0 45.7.1 47.1 2.1 51.6 4.7 10.2 13.1 16 24.2 16.7 5.5.4 7.1 0 12.7-2.7 7.3-3.6 12.7-9.6 14.8-16.5.9-3 1.2-16.2 1.2-50.1 0-50.7.2-49.1-6.4-57.4-6.3-7.9-20.3-12.1-29.2-8.8z"/><path d="M67.6 65.7c-11.3 3.4-21.2 12.6-25.8 24l-2.3 5.8-.3 279.5c-.1 168.6.1 282.2.7 286.2 1.7 12.3 7.9 22.3 18 28.7 10.2 6.6-13 6.1 292.2 6.1 255.3 0 277.9-.1 282.5-1.7 12.3-4.1 21.7-13.5 25.8-25.8 1.5-4.7 1.6-26.9 1.4-290l-.3-285-3.2-6.7c-4-8.4-10.7-15.1-19.3-19.2l-6.5-3.1-41.7-.3-41.8-.3v28.3c0 31.4-.7 36.2-6.2 47.7-2.2 4.5-5.7 9.1-10.8 14.2-11.5 11.6-23.9 17-39.4 17.2-9.6.1-16.9-1.5-25.1-5.4-15.2-7.2-27.9-23.2-31.4-39.7-.7-3.2-1.1-16.6-1.1-33.7V64H267v27.8c0 24.6-.2 28.8-2 35.7-7.6 29.8-37.3 48.6-67.2 42.4-20.3-4.2-38.7-22.5-43.8-43.4-.8-3.4-1.1-14.4-1.1-33.8l.2-28.7-40.3.1c-33 0-41.2.3-45.2 1.6zm545.2 357.8c.1 123-.1 192.9-.8 196.4-.5 2.9-2 7.4-3.2 9.8-2.9 5.8-11.4 13.6-17.5 15.9-4.6 1.8-13.6 1.9-237.8 2.2-171.3.2-234.6 0-239-.8-3.3-.7-7.6-2-9.5-3-5.6-2.8-11.9-9.6-14.8-15.8l-2.7-5.7-.3-195.3L87 232l262.7.2 262.8.3.3 191z"/><path d="M337.5 266.6c-1.6.2-7.3.9-12.5 1.5-32.7 3.7-74.2 18.7-87.3 31.4-6.3 6.1-8 11.3-8.5 26.2-.8 24.9 4.7 38 15.8 37.6 2.5-.1 8.7-2.6 17.6-7.1 35.3-17.6 55.2-23.3 82.9-23.3 23.4-.1 35.9 3.5 45.3 12.8 9.3 9.4 13.2 23.4 13.2 48V409h-12.7c-61.2.1-100 6.3-128.3 20.5-34 17.1-51 45.8-51 86.1 0 23.3 5.5 42.4 17 59.5 4.9 7.1 18.1 19.5 25.6 24 33.9 20.2 82.9 22.6 119 5.9 13.8-6.4 33.5-20.4 40.8-29l2.4-2.9.4 14.3c.3 12.7.5 14.7 2.3 16.6 4.1 4.6 7.8 5.4 28 5.8 28.5.6 37.3-1.5 39.5-9.8.8-2.8 1-38 .7-119.8-.3-101.4-.6-116.8-2-124.9-2.7-15.2-6.2-26.5-11.8-37.5-14.8-29.3-46.4-46.4-93.9-50.7-10.7-1-35.6-1.3-42.5-.5zM404 491v26.9l-9.2 9.4c-17.8 17.8-33 25.6-51.8 26.4-26.9 1.2-43.9-11.2-47.1-34.5-3.5-24.1 8.7-42.4 32.9-49.6 13-3.8 27.5-5.2 58-5.4l17.2-.2v27z"/></svg>