<svg xmlns="http://www.w3.org/2000/svg" width="201.26" height="70.87" viewBox="0 0 201.26 70.87"><g fill="#FFF"><path d="M33.171 54.265c0 .363-.131.65-.391.857s-.669.357-1.227.447c-.559.092-1.383.137-2.475.137-1.169 0-2.02-.045-2.552-.137-.533-.09-.91-.24-1.131-.447s-.331-.494-.331-.857v-2.768c-1.429 1.533-3.06 2.729-4.891 3.586-1.832.858-3.864 1.285-6.099 1.285-1.846 0-3.541-.24-5.087-.721s-2.884-1.195-4.014-2.143a9.637 9.637 0 0 1-2.63-3.527c-.623-1.402-.936-3.039-.936-4.91 0-2.027.395-3.785 1.188-5.279.792-1.494 1.974-2.729 3.546-3.703 1.572-.975 3.527-1.696 5.865-2.165 2.338-.467 5.053-.701 8.146-.701h3.39v-2.104c0-1.092-.109-2.047-.33-2.865-.223-.817-.585-1.499-1.092-2.046-.506-.545-1.183-.949-2.027-1.209s-1.889-.389-3.137-.389c-1.637 0-3.098.182-4.384.545-1.286.364-2.423.768-3.409 1.209a34.68 34.68 0 0 0-2.476 1.208c-.662.364-1.202.545-1.617.545-.286 0-.54-.09-.76-.271-.222-.182-.403-.442-.546-.781a5.292 5.292 0 0 1-.331-1.247 10.5 10.5 0 0 1-.116-1.637c0-.805.063-1.441.193-1.908.131-.469.377-.89.74-1.268.365-.377 1-.791 1.91-1.246.909-.455 1.975-.877 3.195-1.268a29.72 29.72 0 0 1 3.995-.955 26.49 26.49 0 0 1 4.462-.369c2.729 0 5.061.268 6.996.799 1.935.533 3.526 1.352 4.773 2.455s2.156 2.527 2.729 4.268c.57 1.74.857 3.806.857 6.196v23.384h.004zm-9.627-14.887h-3.74c-1.586 0-2.937.117-4.053.35-1.118.234-2.027.586-2.729 1.053s-1.215 1.033-1.539 1.695c-.325.662-.488 1.422-.488 2.279 0 1.457.462 2.6 1.385 3.43.922.832 2.201 1.248 3.838 1.248a7.2 7.2 0 0 0 3.801-1.053c1.154-.701 2.33-1.727 3.525-3.08v-5.922zM70.679 46.167c0 .287-.065 8.506-.194 8.701-.131.195-.352.357-.663.488-.311.129-.734.219-1.267.271-.532.051-1.189.078-1.967.078-.832 0-1.508-.027-2.027-.078-.52-.053-.941-.143-1.268-.271-.324-.131-.558-.293-.7-.488a1.181 1.181 0 0 1-.215-.721V50.29c-1.792 1.922-3.67 3.416-5.631 4.48-1.962 1.067-4.138 1.598-6.528 1.598-2.65 0-4.891-.514-6.723-1.539a12.8 12.8 0 0 1-4.48-4.15c-1.157-1.74-1.994-3.773-2.514-6.1-.521-2.324-.78-4.773-.78-7.346 0-3.09.331-5.87.993-8.34.663-2.468 1.631-4.571 2.904-6.313a12.875 12.875 0 0 1 4.754-4.015c1.896-.935 4.079-1.402 6.548-1.402 1.948 0 3.715.395 5.3 1.188 1.584.795 3.156 1.955 4.715 3.488V3.018c0-.26.071-.495.215-.703.143-.207.402-.383.779-.525.377-.143.877-.254 1.5-.332.625-.077 1.416-.117 2.378-.117.961 0 1.753.04 2.378.117.623.078 1.116.189 1.48.332.363.143.623.318.779.525.156.208.233.443.233.703v43.149h.001zM60.936 30.92c-1.402-1.768-2.746-3.118-4.033-4.054-1.285-.934-2.631-1.402-4.033-1.402-1.273 0-2.371.318-3.293.955-.923.637-1.663 1.487-2.221 2.552-.56 1.066-.975 2.256-1.248 3.566a19.823 19.823 0 0 0-.409 4.034c0 1.455.117 2.871.35 4.248.234 1.379.617 2.605 1.15 3.684.532 1.078 1.24 1.941 2.124 2.592.882.648 2 .973 3.35.973.676 0 1.332-.098 1.969-.291.636-.195 1.285-.514 1.949-.955.662-.441 1.344-1.02 2.045-1.734a34.965 34.965 0 0 0 2.299-2.631V30.92h.001zM101.984 19.58c-.26-.285-.696-.57-1.306-.856a14.559 14.559 0 0 0-2.145-.781 20.416 20.416 0 0 0-2.766-.564 23.175 23.175 0 0 0-3.177-.214c-2.442 0-4.625.332-6.547.994-1.923.662-3.56 1.584-4.911 2.767-1.351 1.182-2.377 2.565-3.078 4.149-.701 1.586-1.052 3.301-1.052 5.143 0 1.691.317 3.094.954 4.211a9.5 9.5 0 0 0 2.397 2.805 15.64 15.64 0 0 0 3.138 1.91 81.941 81.941 0 0 1 3.138 1.52c.961.494 1.759 1.027 2.397 1.598.636.572.954 1.313.954 2.223a4.56 4.56 0 0 1-.37 1.83 4.15 4.15 0 0 1-1.149 1.519c-.521.443-1.176.787-1.968 1.033-.793.248-1.722.371-2.787.371-1.533 0-2.813-.162-3.838-.486-1.027-.326-1.891-.676-2.592-1.053a17.377 17.377 0 0 1-1.715-1.033c-.338-.238-1.117-.627-1.536-.408-.773.402-.696 2.361-.718 3.07-.041 1.27.018 2.539-.034 3.811-.034.824-.068 1.996.919 2.279 1.754.504 3.613.391 5.402.678 1.131.184 2.318.273 3.566.273 2.598 0 4.93-.346 6.995-1.033 2.065-.688 3.819-1.641 5.261-2.863 1.442-1.221 2.539-2.67 3.293-4.346s1.131-3.5 1.131-5.475c0-1.689-.326-3.092-.975-4.209a9.976 9.976 0 0 0-2.455-2.844 15.517 15.517 0 0 0-3.195-1.951 132.541 132.541 0 0 1-3.195-1.498c-.988-.48-1.813-.994-2.475-1.541-.662-.545-.994-1.221-.994-2.025a4.2 4.2 0 0 1 .37-1.754 4.09 4.09 0 0 1 1.072-1.423c.468-.402 1.059-.721 1.773-.955.714-.232 1.525-.351 2.436-.351 1.169 0 2.188.118 3.059.351.87.234 1.631.5 2.28.799.649.301 1.202.572 1.656.819.685.372 1.56.586 2.06-.134.371-.533.473-1.211.639-1.822.364-1.343 1.193-3.32.088-4.534zM138.549 30.413c0 1.689-.155 3.508-.469 5.457a35.6 35.6 0 0 1-1.441 5.807 31.881 31.881 0 0 1-2.493 5.555 20.473 20.473 0 0 1-3.643 4.695 16.742 16.742 0 0 1-4.872 3.234c-1.832.805-3.892 1.207-6.176 1.207-1.04 0-2.014-.104-2.924-.311a11.505 11.505 0 0 1-2.512-.879 10.743 10.743 0 0 1-2.086-1.324 11.346 11.346 0 0 1-1.637-1.617l-3.079 15.707a1.406 1.406 0 0 1-.369.699c-.195.209-.495.383-.896.527-.403.143-.93.254-1.578.33-.649.078-1.455.119-2.417.119-.961 0-1.74-.041-2.338-.119-.598-.076-1.072-.188-1.422-.33-.352-.145-.578-.318-.683-.527a1.043 1.043 0 0 1-.077-.699l9.742-48.598c.104-.546.506-.937 1.207-1.169.702-.235 1.857-.352 3.47-.352.805 0 1.46.033 1.968.098.506.065.909.154 1.207.272.3.118.5.273.603.468a.982.982 0 0 1 .078.683l-1.091 5.649c.391-.855 1.008-1.746 1.851-2.67.846-.921 1.859-1.766 3.041-2.533a18.025 18.025 0 0 1 3.895-1.889 13.257 13.257 0 0 1 4.385-.74c2.001 0 3.684.345 5.048 1.032 1.364.688 2.469 1.631 3.312 2.825.846 1.195 1.455 2.599 1.833 4.209.375 1.612.563 3.341.563 5.184zm-10.094.859c0-.885-.072-1.689-.214-2.417-.145-.727-.377-1.345-.701-1.852a3.2 3.2 0 0 0-1.246-1.148c-.508-.26-1.126-.391-1.852-.391-1.172 0-2.346.345-3.527 1.032-1.183.689-2.293 1.624-3.33 2.807-1.041 1.182-1.964 2.561-2.769 4.131a18.503 18.503 0 0 0-1.715 5.047l-1.091 5.299c.909 1.432 1.915 2.502 3.02 3.217 1.104.713 2.383 1.07 3.838 1.07 1.064 0 2.047-.26 2.942-.779a8.886 8.886 0 0 0 2.415-2.084c.715-.871 1.338-1.877 1.873-3.021a23.533 23.533 0 0 0 1.324-3.584c.351-1.248.609-2.5.778-3.76.17-1.26.255-2.452.255-3.567zM168.174 54.187c-.054.26-.163.486-.332.682-.171.195-.431.352-.78.467a6.858 6.858 0 0 1-1.344.273c-.545.064-1.222.098-2.027.098-.805 0-1.461-.033-1.969-.098-.506-.064-.901-.156-1.188-.273-.286-.115-.474-.271-.565-.467-.091-.195-.1-.422-.018-.682l1.051-5.65c-.519.91-1.233 1.826-2.143 2.748a18.566 18.566 0 0 1-3.138 2.533 17.165 17.165 0 0 1-3.839 1.85 13.144 13.144 0 0 1-4.248.701c-1.819 0-3.357-.252-4.617-.76-1.26-.506-2.273-1.193-3.042-2.064-.765-.871-1.324-1.916-1.674-3.139-.351-1.221-.527-2.545-.527-3.975 0-.883.059-1.785.177-2.709.117-.922.265-1.863.446-2.824l4.288-21.551c.051-.259.174-.487.369-.683.195-.195.495-.35.896-.468.404-.118.931-.207 1.578-.272.65-.064 1.442-.098 2.378-.098.961 0 1.747.033 2.358.098.609.065 1.086.154 1.423.272s.565.273.682.468c.118.195.15.424.1.683l-4.133 20.887c-.129.572-.228 1.172-.292 1.795s-.097 1.221-.097 1.791c0 .623.057 1.189.174 1.697.118.506.306.941.564 1.305.26.363.592.637.996.818.4.182.888.273 1.46.273 1.065 0 2.178-.346 3.333-1.035 1.156-.688 2.253-1.635 3.293-2.844 1.038-1.209 1.967-2.637 2.785-4.287a22.855 22.855 0 0 0 1.852-5.358l2.964-15.043a1.05 1.05 0 0 1 .35-.683c.206-.195.512-.35.915-.468.404-.118.929-.207 1.578-.272a24.76 24.76 0 0 1 2.379-.098c.96 0 1.746.033 2.356.098s1.092.154 1.441.272c.351.118.578.273.683.468s.131.424.077.683l-6.973 34.841zM200.26 18.839c0 .182-.026.507-.077.974a33.51 33.51 0 0 1-.236 1.638 29.784 29.784 0 0 1-.388 1.928c-.157.662-.331 1.281-.526 1.852s-.415 1.039-.664 1.403c-.246.364-.514.546-.797.546-.235 0-.468-.046-.701-.137a13.274 13.274 0 0 0-.781-.273c-.286-.09-.596-.182-.934-.273a4.523 4.523 0 0 0-1.169-.136c-.885 0-1.827.338-2.827 1.014-1 .675-1.955 1.565-2.862 2.669-.909 1.105-1.723 2.391-2.438 3.857a18.579 18.579 0 0 0-1.538 4.618l-3.119 15.629c-.051.26-.174.488-.369.682-.195.195-.494.357-.895.486-.404.131-.932.229-1.578.293a24.76 24.76 0 0 1-2.379.098c-.96 0-1.746-.033-2.356-.098-.612-.064-1.092-.162-1.441-.293-.351-.129-.581-.291-.683-.486-.105-.193-.131-.422-.077-.682l6.936-34.801c.051-.259.168-.487.35-.683.183-.195.447-.35.8-.468.351-.118.803-.207 1.362-.272a17.938 17.938 0 0 1 2.009-.098c.805 0 1.461.033 1.966.098.509.065.904.154 1.191.272.284.118.474.273.564.468s.11.424.06.683l-1.092 5.534a17.912 17.912 0 0 1 2.161-3.08 17.075 17.075 0 0 1 2.611-2.435 12.41 12.41 0 0 1 2.865-1.617c.986-.389 1.96-.584 2.924-.584.391 0 .783.026 1.188.078.403.053.778.117 1.131.194.351.077.661.175.934.292a2.7 2.7 0 0 1 .645.37c.152.156.23.402.23.74z"/></g></svg>